<mxfile host="app.diagrams.net" modified="2023-07-25T02:35:21.398Z" agent="Mozilla/5.0 (Windows NT 10.0; Win64; x64) AppleWebKit/537.36 (KHTML, like Gecko) Chrome/114.0.0.0 Safari/537.36 Edg/114.0.1823.82" etag="K-5UN9plq0wp6oDHxk97" version="21.6.5" type="github">
  <diagram name="第 1 页" id="FUQudz34t2ytJJfa0v0i">
    <mxGraphModel dx="1247" dy="1116" grid="1" gridSize="10" guides="1" tooltips="1" connect="1" arrows="1" fold="1" page="1" pageScale="1" pageWidth="827" pageHeight="1169" math="0" shadow="0">
      <root>
        <mxCell id="0" />
        <mxCell id="1" parent="0" />
        <mxCell id="0DrY1R5x5lav_iNpwX6R-2" value="" style="shape=image;verticalLabelPosition=bottom;labelBackgroundColor=default;verticalAlign=top;aspect=fixed;imageAspect=0;image=data:image/png,iVBORw0KGgoAAAANSUhEUgAAAZAAAAE/CAYAAABo9ZX3AAAgAElEQVR4nOzdCVxU5foH8N8MDjvDDsMi4FKagKKiaIAZNzLXXDAVS1purilezVKrW2alyU3TxNSutl1Rc2n5m3vuBi4FmlIusQmyIwz7ADP/98wMOMCwHYZB8Pl+Qs6c88573hnufZ/zLue8Ak9vHwUIIYSQFhK2dwEIIYR0TBRACCGE8EIBhBBCCC8UQAghhPBCAYQQQggvFEAIIYTwQgGEEEIILxRACCGE8EIBhBBCCC9d2rsAhOiLWGzV3kXokKTS/PYuAnlAUQuEEEIILxRACCGE8EIBhBBCCC8UQAghhPBCAYQQQggvFEAIIYTwQgGEEEIILxRACCGE8EIBhBBCCC8UQAghhPBCAYQQQggvFEAIIYTwoqcA4o7QpcsQ4KafsxHdcHcLYD+aewKwdFPtv2NAAEvDJ/OAZYhcOp3fewkhDwQ9PY03GVFRKYjc9DMCVo/G6nP8cnEPXYZpOIudUedYjmpu0xEZCrZvB86laH0X3AO6omudvW4BofB3O481rDBd3eoeVb0vINQN51avaiDfBxFXwQciJeosGityQCj7wqI+Zn+H5EZSsb9ayh2Esr/ZGymrMK/6j8YFj+rMWRCYxn33KezvweM7cmd/RW0lcHdjR1IaL9uDzQ/ha/yQum8/9l1IbXVurq5+cHFpLIEfJk1ywYU33sS+1p+OkGbT3+PcU3Zg5zl/VsW1BhcI7tSvdFildqemAmMVPwsY585VRylWSZ1TV1SswjsQmoJ5c3coj0dVp9BWWbFKbFpHbDFxwZBV6I0GPfY9BGituutigX91FPxZUAoAy7N2JlgakII17LtsLCd31kLRFp6V5XTj/lZ19wdiaSgrXdRczIvqwEHEldX4abqpzVNTL7AfjR1+CxA1KQ1vvLEPyt0XLuDCPp2cipAWaYMAwnVXBbA6TMv/+c9FsUoooH6lwVoDSwPuYPXc6qt9VRCoy01ZoQfUPqbaCX91ReXGWims4aC1AnJnlVYyK0P9krlrvxpOSdEITA+RgOlY6pas/lsk4zz3PbLvl+us4kK4G9sOZZU/9zfuWhMg2N9sKWuOrJ5bq2WTfO6c9gATEMi+32SNQK/i7nYHY6JWtdlHa0uurq61d7j4wU/dcnAdsgCTsAFvrL+AhsKKqx9radTegyGTJsIvrf77Ui80nA8h+qL7AOIWAH/uyvVc8/upAlgAOceudO9fNXMVi5Zq3i2U5X2u9jGupcAC0vnqiurc6JqWRZ13syDjjjvarmpZmd/Y9CbOz52LqOoysMDknnK2WdfpDxqugg9oJPC5NdGyCgjwR4rWLkH23Y/ZUbNdO1P2d2Atn51aW3MB9ce/tLVA2N93aag7+98C/27OdqPsZkpDWhrbdnGFS+pFxKSxloG6lk9zTYUf0hqt9O8HBT+ER/khJnQD1mtpWnBx6oIOusYIaS0dBxCu9cGuQs/Nbf5bWOUC1lpY3eZX+uzK2Y0LPtrKwIIFa5nM0yiDsrWScqetC9UmUs413oUVwL4H5TgGF2jO1e6acg/dpGoNrm7ZOblAsIa1ILUGXG1dalpbIOdY66Nl531gpN4PFq5+8+Gath+N1/GuykCQmtrMQOA3CeEsCMWkqgIIUjVbNxMxyeXi/S4tQvRExwEkGedXc1fxyQ33fVdT9nV3ZbFD46q/KaySX1P3CpdVTmvmah+MrYVVWAHnzqKherGjBgs+zqm7iNwDuDlQtSMq18W3WjOoBCzDUrezWgOSciJCCgu8USx91I76CVqBK1tyE4P8DyY/TPID9m240HRKFgGaHUDgAj8WQNbvY4HqQu28L7Bz+rlSlxbRP513YVUPSDfY981hrQ4ueJyLisL5xoKH1q4PbYFJNcsqIHQZumrOGNIQoOwrSVF1mbDgNS0gBTu5wXSoWhv1cnRzx50OWYE1X1c3f9b42oFaU7ZS6g6WQ/k3WB2l7TtdBreUhvuaGr2IaGgQnTvE8g1l+8/VGU/pCPzCJ8LlwmdYz9XmrKngyqr1BmOEHzu+j0/Fz3VxTQTWs/NQVxZpR/qbhaXmHjCdVd7JrPKe23SrQetsIhZ8DgTi3JhVdSo6d64LHVr7qNymKyuq5Cj1+Il63ESzzXGnVsuG5eWWzI2hdzDc5wvF0k0/s5ZBU9+uu/Iej+SUAERpCQ61NFTRNzGW0uBFBDf1eil3nH3vddJwU3i5MZCO15Pliknh8+Ea8xneqK7UXSZiTbgL9q1/ExdS0+Aa/jHW+FX3c6mCC4sgDQeYJqTqaJYXIXzpMYBwFT83S+djrF6tbYC87eb+BwRw93Oca2BabgALJu7oek5zdpg7VBO+uBZQKKax6kxbq+ZBxF21j+HGojZtgv+5OjPRuGnMS6Ex2615uECgmrhQO3i7s++l5UFWPU7GzZJLCVXNmKuZuDAdb2zijq1Sdot1DK7K2VOThgAx++rch5GWxoJDGjfLloWKDeBuv7n/Nj+4plK3E+nYdBhAtN+wp3mcO3bHrWv9KbrKabxcn7f27qdW4QbpWb7n3LibELU5xwLaKrinaF4JcxWmqk/fnf2//k4j3TQPJlXryU1bQK41NZm1LGqm6zaA+5s0dJZzjd8DUh831XcTQlNWYYwysJ2F21L29+H+5ly35lJ/1RhaB+q24oKHHwsDMTGoNW1XdVD1wq/e9FwWcMJVAWT9GxvQ9GiJNmm8Wy6E6IoOA4jGDXsN4Cb4ap0hxPaN0V1Baqvu02+suyWlfleLu/rKmBsLafS27gdA/bEGd+W4RVe3OvfcqMd6qu+Z4caMlAFEOdZQJ1PuUSPcONG52l171feBaGbbvDvbVcFjqRtrzc2tPhk37Zeb9cVlguZ1az5gUrlptq6u2gfD01yVA+oX6t2zcQEXQusnr88VfiyDIezddIc5eRDpfQzkgaJtkB6q2UWh6hsbq6/mH2TaxhoCliYr742pFay5qbMsGlbfM3Pu3OiGM1U2YeqPUQSwnSm1pv6qx54a635Uti64RPXTJEdFAZsCca6hKcAdQK3g4bcA4a77sb5Ojc89jgTN6bJiwUjVYnHBkEku2LdvH9Yr8/XTOAdr6aSmgW4+J+2tYwcQVjFxs3WUFXxK442M6vTK7jM39QOdGnrkR81jTtyVffQdDms1dU05z67u27sg7srWyTQ31pJhrRyuG/FAvSvvc1gdFYjITcuAuXUnRnQwrpOwJpybw3tBNftK4xA3FuI3aQEmuaYhhgWF+pOnWOAI/xjhfqm4sG8/NoTWDzapNePvLsqbDqG8H4Tbk6arp6YQ0iIdO4CwAMBdwLq7Tce0TaHK5zs1ek9JSu1ZWE3jbj6804Eepqii7FI6187dQergfp4bQ6kZJK+bSPXImjsszRq3TYg8sAnnVjf9kMcHEmthhC8YjLT107Fe66AGFxg24AILMuELdmAS9mPfBs1Awh1/U9ly0Toz98IGvKHMl3twImt9cAGGyyvchQUk1uKhARHSDjp2AFFLTtmB1XPPqZ5n1ZzKnqWf15yb5ZVX8inoSLcYcneST8MqPTyIUPXsKy4Od2WB4Xzdw+rgrhUXXEJVNyGuqX6ysnJW1jK8sXQTDijH086z4JN8/xE1DzJlUGAV+YY3m7j7nEndh/VvpCJ8zQKET0pFqGa0YUGg8QF1V0xaw93/8aYqHZfXeu7Jv6zlwgIS3YlO9K2NA4i6C0M564p7YOE5HT2ypGtNL1SNlCbuRmeVldbnNNXF3fMQ+qZqyi83gB7VUQZ2uQr9TeWU4zW6mMnGff5GJ0UkKx91f4cFrDeiPm7W0wSUN2yy4BG5KVn5BIJ5dd6jnIU3VxVcuK7DnVomNzxYXFns4MYjLiiDQs1evwWslcBt+bEU+7W8j6XfsAHhfmnNPxPLc8Ek7g73uo9sV83kCo/ijl/AGzTaTvRI4Onto2j703D3JbwJt2asQdE0VsEsdcf51S2dQtoy3JX8G8r1Qtr2PLqgvDnTLRk7zzWxLgdLF8nS8b/HgltvhF0GqO/gbzG36eDG0ne203cqFlvp8Wxcy2AiUutV+C3j6jcJfkO4xgb3rK1GMnLlphNfaLoFxINUmq/7TEmnoKcAQkj7028A6TwogJCG0JrohBBCeKEAQgghhBcKIIQQQnihAEIIIYQXCiCEEEJ4oQBCCCGEFwoghBBCeOliOuJUe5fhoVRyZHh7F4EQQlqFWiCEEEJ4oQBCCCGEl07xNN6OqFAqbe8iPHToUSb80P9WSUPoWViEEEJ4oS4sQgghvFAAIYQQwgsFEEIIIbxQACGEEMILBRBCCCG8UAAhhBDCCwUQQgghvFAAIYQQwgsFEEIIIbw89I8yEXk8g/mzRsINKTi0ZQOOJFW0d5EIIaRDeOhbIJ6jwhDk3RM9vYMQNqpPexeHEEI6DD22QITobWmJl8Sm6GtkAFPIkV0uw5mCfGyTylCsv4LUciv6GG77j2UtkGQcj77dTqVoGceJa7Ht5V5s6zd8OvnfOF7aNucRCJ0x1H4yRpnbQ6Tc8we++Xs3rmtNbY7ulsMxzKIX3EQWMEI5CivuIL7wHE4UJKFI7+kJIW1NTwFEiP72EnxqJYJBVQUuFRUjh526j5kJpjgaY5BhFl7NKUOZfgpTS3Hsdiycvr0dzvwgE0Js+gSes38Sj3RpRiNVYAVfyWyEmJpDULOzC6yNesPfqBe8TfZhY0YcCvSVnhCiF/oJICJzzOeCR0URltzJQ3SV6gHAQgNTLO9qj5FW1phQkI6dNPzwQBCYjsUip0EwYdtl5ZcRU9EDw82tG0xvaBqMscrKvRIZhYdxqCAR+bBkLYYRGGXhCLHZGIw0i8euYple0hNC9EMvAcTIxBhch8u1goKa4MGRV5VgW0E5RtoZoa8xWhVARI4DMfa5CQjy8YCDjSVMheXIz85E0tXj2LvrAOKyNDIXj8TqqNfgVTeTG9sQtng/cuvsrukykp/Bh1P2wmrmTIQMeRQ2XQqR/PsRfL11J2Jz5TXp3UM3ITLUnW2dx6oxH7F/q/lj2YHl7F8gOWoe5kUl8St/DQXkZr0x8bVZGOfbDZaCfCRdPoQvt36Hq/n8n9IvEJrCRFGMhILv8V3eXzCxDsfwRtK7mPSAMbdREY3vsmKQptybiYzsIlgZz8UTImP0MHZmzb0kvaQnhOiHXgKIiUDV8ZBTUVnvWFZFlSqNkOsqkdc73iymvpj/n/cQZC3Q2GkCK4kHfCT/hM8QH6wNfxcnsvllr5nnkHkf4B/DxerXtujpH4oVrO6aH74DyTyLz7/8Ivi9ugL+/ubq1/Z4ZNgMrHCsxNzX9yGdZwxRVN7G4bv/h1NlRVAoS9JE8YXGqo3KXNQqoiIHOZXKYsLEwERv6Qkh+tEu03i7CA1gxYJFjvx+DSdoJH1ThP2exBPKyrcEV3dG4MuzqSiqMoRdn0kIDw+CROyLScHuOBGVrHpD0WlEzIyDofKFEQLDIzHDszknGoBBDv+HT5b9gsRyW/SfPAcvD3WEsFsIpg7di4/Pl+un/DX64DGLA4h48wRSKp3gHzYPU/taQtRrCib224fIOF7FgaLsEk7ye6uSgdACZuyzSDUCamN/37ZOTwhpG/oPIF3MEeFui8EoxUfJWTisgywVMhm4Dh4DZOHKqYu4perjQHraRiy5vhtmrHFTVaRx7SovQe7dEvULE+Q3u97PxKHPv8DJRG47AUlrLdB392IMEhqiW3fWDDmfqJ/y18jC0S/+i9Pq8iR+6gjf7a+gJ6te3d1sgbi6nXF6IBqG11yfhjPScSj1C5S0d3pCSJvRfwCRy5FZJWfhowr3+Hb51KGIP4Mz2cF42t4D0z76BO7RV5CYmobUpFuIv3kHqTJdrdqbgYwMjZelmcjklou2AsQW4obe1CT+5Wfn1yxPFnvNfvVkP2bmFuzfdgggKGR/1wrYI59tcUGxvdMTQtpKOwSQEqxOYj/qlzqpAEpjsfmtj1DwynQ83b83ho1hP9XHytMRsy8Sm6JikdfqEynQYCgStKIThXf5GylPe6mIxTfJseoXhqyl2c7pCSFt5oF5lElrK0LZ3V/x9Ur2IxLDqasrJBIX9Ow/AhNGPoYhoe/AOH823j6Y1cqzCBrua1dofgKNsR2BxkuB5vtrf2L9lL/9tPTv29bpCSGtp5dHmZSqK1c7Uf145SDi2iAKFMn5VwEWLo+hTx9P9HlUAuMKKdIT4hH76zHsiVyJnde4FEbo6+ulHjRvDQmr2DVemjjCUd1zVSC9fxtbYWH1fdHOcHLSSO/swvao00il7VD+tlEiV98C2sUW9poHBHawU//JS6tK9ZaeEKIfemmBlJeW4QZM4GlpiaHS2jcSvmxpxOJHOa6W8Q8gjsGvY00Iq9nlafhlYyR+jM9iQcsI1u7DEdhdlUZeWVlzlWpgbg8HcfVHN4KVkXqTXf07OjupK+pKFGZmo6hK80wSjJr7KlK//gWJMhv0n/w8fJUhWIakxLs1qfKuXEEqvOCKbpgwfwbSvzmLNIErngibAA8ugSIFcVfv8S5/mzOwg4fIrOalnag6dJnBwdhd/diZUuSUZ6GIFSqtLAFlln1hLBqK5xwK1Df6WaGH5Qj4K5+BUoa/y+5/P22dnhCiH/rpwqoowmf55vjUipuBZYRLJeXIgYHyUSYeQgX+vncPP7XiJsLbB3cjdkQ4+lu44B8LPsI/6iaQZ+PoocuoPoXT6Hex+YVu9TPqPhlrtk5Wv0jGt7PnYneqxnHFFcTlPoXFq8fXzj5pP3ZFa9wFnfIjtvw8HCtGu0DsPQVLI6ZopK5C6oHN+CmFf/nbnPGTmC3pp6W7rjuecVFHNNzCnsSvcZkFEFnxMRwo7o4QM3NILMbgJQvN97DWZclBHCm5//20dXpCiH7oaQxEjtjsDMwut8RLVqboa2YGY/Z//GxZKXYW5ONLqax1z8HKOoqViwswcep4DPPpCQk7h6GgCrKiPKTe+h2n9kXhhys6mPApkCFm0zuIl83EeL+esBUWIjnuKL7ZWvcmwmLEbl6MN5KmY8ozfnisqy1M2RV7dsp1xBzchZ1Hb9aefqqv8rcVxT1cyojEPcsgBIofUT/sUAZpxR3ckJ7FcdZiKNRnekKIXgg8vX1o/LEJ959+exlrJ72LE/zuFySEkE7loV8PpGUEENI3RgghSlQdEkII4YUCCCGEEF5oDIQQQggv1AIhhBDCCwUQQgghvFAAIYQQwgsFEEIIIbxQACGEEMILBRBCCCG8PDDrgeiKyOMZzJ81Em5IwaEtG3AkSW+PICSEkIdKp2uBeI4KQ5B3T/T0DkLYqD7tXRxCCOm09NQCMcWHj9hjeEOHS3IxIq0IRQ0db4Fb0cdw238sa4Ek43j0bR3kqMF1KiI3vwB3thnzyXh8cLJzt24EZj0xeu7reOmJrlAumSI/gw/HfYzo9i4YIeSBoKcAUonogkLk1tkrNjJFsLEBZHIFS6EbxbHbsXD6dh3l9rAygG3/57AwfBr62+lk1XpCSCekpwAiw4GsvFp7zE2ssMGCBY/yIizLKm7deiBEp4QD5iByxUiYC1jjMOEwDt7tj5AAx/YuFiHkAdMug+hmxpZY52yJbpWFWJ6Wh5iqpt/TKPFIrI56DV5199/YhrDF++u1fDgix4EY+9wEBPl4wMHGEqbCcuRnZyLp6nHs3XUAcVnq7innyfhs64uou37hkMU/4MDi+6/zf16K5z//4/4OoTW8Rk9DSPAg9HLlFpQqQW7qDVw6ugdRB6+hQHMBqppzVOCX95/HYadZeGXcIHS3EaE4/TrO7tmGr04mo9aaewIzPPLUVEx+5nF4uqnzv3Mdvx76DruP3VIvO8uTuRjmigJc278ea7+9APNpWxDSmvwIIZ2S3gOIibEY/3GxQk8WPN5K49ZH13cJGFNfzP/Pewiy1ly01QRWEg/4SP4JnyE+WBv+Lk5k8z2BDQKXrMOSQDuNWQoWcOjui9GzB8CvTwQWrTmDPC3vNA9cgBVP+rOAoGLoNhDjFj8KB8zFByer32EJvwWf4K1gJ438LSF59HFMfNQPQ3uvxKLPLvFfpS8vFl8v/xz7rt0DF+fM+eZDCOnU9BxADDDOzhp9Wa1XIhBhrK0lDO9JcUrWygcCF51GxMw4GCpfGCEwPBIzPBtOLuz3JJ5QBo8SXN0ZgS/PpqKoyhB2fSYhPDwIErEvJgW740RUMpBzEuveiIcx90b7ICxe8gy4zpzru5bj69/vj9xU5iXe/5Q+oZijDB4KZF/8Clt2X0YGJBg4ZTZeHGwPu2FzMO3oeUTG1Y2eBujfT4z/i3gTp1PKYes9CbP+GQiJ0AJDpo6B+8lvkMyl8p6GecrgUYTr329B1KkE5Css0G3YdMwK8YbTiHl47tjL2PaXHHzIrx3CHl7vJIQ8TPQcQBRILCnCAZkApiIR+lpYYZiFGfanZ+CTYn6VnZK8BLl3q9cMN0F+E0vOKmQycB1UBsjClVMXcStNtT89bSOWXN8NMxbgqorUzQ9ZDhLic1Tbrt41YzWFafGIj9c+C6ubT3+IleX6Dd9E7EVMKfciCUkRpvDavRiDhGL49OsGxNWdJSZE5tHN+PJ0kvJVQuInMHpsEJYGsvDl0hOPmADJLC93lr8NlyDjMLZuO4G/1e9OTvgC3QI2YJLEHgMHurEAktTEF0cIIfzpOYDIcTEvFxfVr4yMxNjQ1RoTHaxwJDEP1/RUCkX8GZzJDsbT9h6Y9tEncI++gsTUNKQm3UL8zTtIbWWLyNxU3QElzUBmqcaB0kxkStlvK8DMzEzre9Pvpmu8qkBaagYqKlzA/alE3Fxalp/YQqw6LAnB+gPaRyesLC1b9RkIIaQp7Xonenl5IfYXW8PL3BgDRMA1fd1WURqLzW99hIJXpuPp/r0xbAz7qSlUOmL2RWJTVKzWMYpmEQh4p5ErarfEEnfMw4QdusufEEJ0RS8BhKvLhAquAwuoXT0qkFfF7RHAVM/3xMvu/oqvV7IfkRhOXV0hkbigZ/8RmDDyMQwJfQfG+bPx9sEsfpkrmtGCaU6apt6b+gPefv8AMrUkkRdrm3tGCCG6o5dqu7etM8484oalpnWPCGBjwBVBjmI9Lqxr4fIY+vTxRJ9HJTCukCI9IR6xvx7DnsiV2KnsRzNCX18v9aC8Brkc1cUUChr+6opK1OMxYgkcTTQOmDjCUd37VFTEf6KttFCqzp99oRnpym4v1U8eStUFrKpqj+lthJCHiV5aIH+XylBkLcIwKwtsLy1EhrqSMzKywERuKKCyHFdkjWbRKANzeziIqz+KEayM1JusdeHo7KQOBJUozMxGEatXHYNfx5oQCQsIafhlYyR+jM9iFa8RrN2HI7C76q3yykrUi2k5WchiDSYPFjt6D5+Awdl/KPPjFKX9iRT1zR2JV2IhDRkJsXAgZrwegpLvLrNWgiMGTpkBX2XckeLK1cS6uTdbclwc7k1xhbU4CK8uvIXtB+KRXWEKN//nMXdqP4hxDz8vD8PnV3mewMIFfbpa1bx0tq/+Qi3RlQXeAtUnRtpfybXvZyGEPFQEnt4+bX/tL+iCcawif9NUiFJZGWLKKiETitDfzAgOrGI/wq6i3y/iXxO5TtmIzS/UvdWvrmR8O3sudqeyTYensXJ9OPpbNJBUno2D787FptiSOgfMMXTJZrz1hHW9t1z6NAQrjlePmNti+PJPsfhxG9QfiVAg93wEFq06ff8GR42bFZv3jC0rDF20FsuCHLU0IauQ/svHWLruvNYbKJtl6Ov46a0nm2ie/oZPJ/8bx0sbTUQI6cT0M4iuqMRPd9ORbW2JUHMTDDY3YieWI7mkEP+7V4DvS/V8GZt1FCsXF2Di1PEY5tMTEitTGAqqICvKQ+qt33FqXxR+uFI3eHCKEL3xbayTvoKJQ3vD1c4U2p8UlYtTqxcgb+x0THrKF71dbGCCMuSm/oXLx/cg6sAfrI3QGvmIXheOJfFTMflpP9ZasIOxvBDZLP+Yw3uw75ebkLYqf0IIaZp+WiCkHRnAzM4B4noDOnXIpMjMKQb1SBFCmqvTLShF6rLDqLf/i7CeTSS7/RVeWbhH64wuQgjRptMtKEUIIUQ/qAuLEEIIL9QCIYQQwgsFEEIIIbxQACGEEMILBRBCCCG8UAAhhBDCCwUQQgghvFAAIYQQwstDfye6yOMZzJ81Em5IwaEtG3AkSV+rWhFCSMf20LdAPEeFIci7J3p6ByFsVJ/2Lg4hhHQY7dQCEWKwozPWiQX4NTMdS6SV7VMM5lb0Mdz2H8taIMk4Hn273crREo4T12Lby73Qpo9UF1iit+WTCLB4BC4icxihHAXlyYgvPINfpHdQ/1nF5uhuORzDLHrBTWShTF9YcYelP4cTBUko0nt6Qkhba5dHmRib2OB/rhawLsnD9LRCZOi7AB1cmwcQgQOGOc/EaGNjLQcVyCvcgY1Zf6FmTUWBFXwlsxFiaq51/RNp8T5szIhTL0Slh/SEEL3QfwtEaIhZjuZwkpfj0+wiCh4PIEvxOIxUBg8Z7koP4aA0BSVCJwy0HQN/I2PYWIzF8IIb+Llcde1haBqMscrKvRIZhYdxqCAR+bBkLYYRGGXhCLHZGIw0i8euYple0hNC9EPPAUSAx6ztECIC4nNzsU+mu8aPyHEgxj43AUE+HnCwsYSpsBz52ZlIunoce3cdQFyWxuC4eCRWR70Gr7qZ3NiGsMX7663kV3PFLz+DD6fshdXMmQgZ8ihsuhQi+fcj+HrrTsTm3l9Jwz10EyJD3dnWeawa8xH7t5o/lh1Yzv4FkqPmYV5UEr/y11BAbtYbE1+bhXG+3WApyEfS5UP4cut3uJrP97sV4RFTD9XgWEUMdmdfUgf5TKRlitHN7Wk4c5W3iTVQnqc84mLSA8q2SkU0vsuKQZo6fQa7QLAynosnRMboYewMFCfpJT0hRD/0GkC6GImxzEYEeXkBVudV6G7xIlNfzP/Pewiy1uzgMO0/+SgAACAASURBVIGVxAM+kn/CZ4gP1oa/ixPZrT2RCYbM+wD/GC5Wv7ZFT/9QrGB11/zwHUjm+4F4l18Ev1dXwN/fXP3aHo8Mm4EVjpWY+/o+pPOKIQok3vsfvuKWNKxMr70+SGWBspvIWZnqfuamQnVXV2UuahVRkYOcSmUxYWJgorf0hBD90GMAEeF5B0v0QAW+ySrA3zrMWdjvSTyhrHxLcHVnBL48m4qiKkPY9ZmE8PAgSMS+mBTsjhNRyao3FJ1GxMw4qBbpM0JgeCRmeDbnRAMwyOH/8MmyX5BYbov+k+fg5aGOEHYLwdShe/Hx+XL9lL9GHzxmcQARb55ASqUT/MPmYWpfS4h6TcHEfvsQGcenNJXILftL63rqJmZ9oFp5vgBJZfkN5mAgtIAZ+yxSjYBaf+xCf+kJIW1DbwHEzdoWYcYC3MnPw1dl1VevpvjwEXsML7+HkBQp0nnmrZDJwHXwGCALV05dxC1VHwfS0zZiyfXdMBMCVUUa167yEuTerZ5HZIL8Ztf7mTj0+Rc4mchtJyBprQX67l6MQUJDdOvOrsvPJ+qn/DWycPSL/+K0ujyJnzrCd/sr6MmqV3c3WyBOWxjgRyDqh8l2nsqupPLS0zhf1kDzRjQMr7ly3VzpOJT6hZbZWnpOTwhpM3oJIAKRBZbaGsGwoggf55aB33V6wxTxZ3AmOxhP23tg2kefwD36ChJT05CadAvxN+8gVWdjLRnI0Bz1L81EJtfVYwWILcQNvalJ/MvPzq9ZnqxMZZcTt3qtmbkF+1c3AUTQxRNTnCbC04CVtfJP7M+6hHsNpi7EPXkF7JHPtrig2JS2Tk8IaSt6CSB9rSzRTyDH8Zx7iNXZwIeG0lhsfusjFLwyHU/3741hY9hP9bHydMTsi8SmqFjktfpEmj3/dQha0YnCu/yNlEdHhF28Mc1lMvp2Yc0geQJ+St+NuMpGzloRi2+SY9UvDDG4qRO0dXpCSJvRSwAxVFeu3cTWWGZa+/S9dHQO2d1f8fVK9iMSw6mrKyQSF/TsPwITRj6GIaHvwDh/Nt4+mNXKswga7mtXaFaq97eVH11x/4VASxr9lb9lDEQ+CHWeBK8uAiiqbuGHtB2IqeB302dLA11bpyeEtJ4eB9GF6GFmjh5tkLOFy2PoailUztJJuJmB9IR45U/srxdR1jUKs7yM0NfXC4YHT6B1dwpIWMXOflUPdZg4wlHdc1UgvX8bW2Fh9X3RznByYr/uVr90Uc5gUqaRStuh/M1nIBqI513Go48BFzz+xN60XbhcUaU1bYm8DNyd4uhiC3u2lVZ9QGAHO/X/wkqrSvWWnhCiH3oJIJey7sBf68WzehC9lfk7Br+ONSGsZpen4ZeNkfgxPgulCiNYuw9HYHdVGnllZc1VqoG5PRzE1R/dCFZG6k129e/o7KSenVWJwsxsFNWqMyUYNfdVpH79CxJlNug/+Xn4Km+YkCEp8W5NqrwrV5AKL7iiGybMn4H0b84iTeCKJ8ImwINLoEhB3NX7owgtLX9bE4p8McP5WfRmwQPyFPySdYTFTEvYijQSKYqRV1muLFNaWQLKLPvCWDQUzzkUqG/0s0IPyxHwV76nDH+X3f9+2jo9IUQ/OsXTeG8f3I3YEeHob+GCfyz4CP+om0CejaOHLqP6Vjyn0e9i8wvd6mfUfTLWbJ2sfpGMb2fPxe5UjeOKK4jLfQqLV4+vnX3SfuyK1mgbpPyILT8Px4rRLhB7T8HSiCkaqauQemAzfkrhX/62Zmbqg95d1J1tQjc85bQQT9VNVLwfb2f8riyTrPgYDhR3RwhrYUosxuAlC82EChSVHMSRkvvfT1unJ4ToR6cIIMg6ipWLCzBx6ngM8+kJiZUpDAVVkBXlIfXW7zi1Lwo/XNHBhE+BDDGb3kG8bCbG+/WErbAQyXFH8c3WujcRFiN282K8kTQdU57xw2NdbVlbqxTZKdcRc3AXdh69WXv6qb7K31YU93ApIxL3LIMQKH5E/bBDGaQVd3BDehbHWYuhUJ/pCSF60S4PU+xo7j+88DLWTnoXJ3Q9D5kQQjqgh349kJYRQEjfGCGEKFF1SAghhBcKIIQQQnihMRBCCCG8UAuEEEIILxRACCGE8EIBhBBCCC8UQAghhPBCAYQQQggvFEAIIYTw0jmehaVB5PEM5s8aCTek4NCWDTiSpK9HEBJCyMOl07VAPEeFIci7J3p6ByFsVJ/2Lg4hhHRaemmBWFk64mcH48YTVRViTkIerrbyXLeij+G2/1jWAknG8ejbrcytDtepiNz8AtzZZswn4/HByU7cuulij0HPTsO44QPQw8kapoIS5CTH48KR77Dr6A0U0u2nhDz09NqFlV1ShDMVdWseEQIsjeEoV+hktb3i2O1YOH27DnJ6iHVxx4QPIvCKl5nGTjEkjw7Bs48Ohl/vD7Bo/QVIG8yAEPIw0GsASS66h7UFtRbOgJm5PUZbAneLSnBDn4UhDbJ9Zg5eUgaPMiQc/i+2H/kTRSbdERQ2G+N6mUESPAeTD1/EthvUDCHkYaaXAFIpr0SKrAKZ8rpHDDDayhTGrO3xfUE5/yVbxSOxOuo1eNXdf2MbwhbvR66Wt4gcB2LscxMQ5OMBBxtLmArLkZ+diaSrx7F31wHEZam7p5wn47OtL6Lu+oVDFv+AA4vvv87/eSme//yP+zuE1vAaPQ0hwYPQy5VbUKoEuak3cOnoHkQdvIZacbTmHBX45f3ncdhpFl4ZNwjdbUQoTr+Os3u24auTybVbaAIzPPLUVEx+5nF4uqnzv3Mdvx76DruP3UJxC7/C+4wwYJC3anAs7SesjTyEJOUfJgm3/2MLry9eRHfYw8tLwr7fdN5nIYR0fHoJIEWFuZimZck4gZEFJpoAspJC/KzP4QRTX8z/z3sIshZo7DSBlcQDPpJ/wmeID9aGv4sT2XxPYIPAJeuwJNBOY5aCBRy6+2L07AHw6xOBRWvOIE/LO80DF2DFk/4sIKgYug3EuMWPwgFz8cHJ6ndYwm/BJ3gr2Ekjf0tIHn0cEx/1w9DeK7Hos0s8V+lT4NruFVjxM9vMT0SKZlTPyVEGY26ZdoWCWh+EPOzacRqvAH6W5ugKOQ7nF6OgNVkVnUbEzDgYKl8YITA8EjM8G04u7PcknlAGjxJc3RmBL8+moqjKEHZ9JiE8PAgSsS8mBbvjRFQyqzRPYt0b8VBOAbAPwuIlz8CRbV7ftRxf/15Zk2dlXmLNtoFPKOYog4cC2Re/wpbdl5EBCQZOmY0XB9vDbtgcTDt6HpFxVXVKZoD+/cT4v4g3cTqlHLbekzDrn4GQCC0wZOoYuJ/8BslcKu9pmKcMHkW4/v0WRJ1KQL7CAt2GTcesEG84jZiH5469jG1/1WvyNYMM6fEXoa1tYT50KFRfaw7i/8zikTchpDNpvwAiNMVEsQFQUYjvi1t5NSsvQe7d6jXDTZDfxJKzCpkMXIPHAFm4cuoibqWp9qenbcSS67thxi7rq4rUzQ9ZDhLic1Tbrt4oU+dRmBaP+HjtzaZuPv0hVpbrN3wTsRcxpdyLJCRFmMJr92IMEorh068bEFd3lpgQmUc348vTScpXCYmfwOixQVgayMKXS088wlprySwvd5a/DZcg4zC2bjuBv9XvTk74At0CNmCSxB4DB7qxAJLUxBfXfEKHJ7FwpqplVHp1N376k09wIoR0Ju0WQJwsxRjKGgE3CwpxTc/nVsSfwZnsYDxt74FpH30C9+grSExNQ2rSLcTfvINUWesCmrmpugNKmoHMUo0DpZnI5KYuWQFmZmba3or0u5rX/hVIS81ARYULuD+VyIjLAxBbiFWHJSFYfyBEaz5Wlpat+gyahPb+WPThvzCElVuRF42N6w6B2h+EkHYKIIaYZGkIoaIM30vb4V6K0lhsfusjFLwyHU/3741hY9hP9bHydMTsi8SmqFitYxTNIhDwTiNX1L6yT9wxDxN26C7/lhI6DsOSVa8j0IG1FqVXsOWdj3E6m8Y/CCHtFEAMzSwwWgQUFxXiaN1hAD2R3f0VX69kPyIxnLq6QiJxQc/+IzBh5GMYEvoOjPNn4+2DPK+zmzPA3JpB6Or3pv6At98/gEwtSeTF2uaetYyBcxDeZC2Px+2FUOT/hs+Xr8TBlE588yQhpEXaIYAI8bSVOcSowp78kpoxBX2ycHkMXS2FQGUuEm5mID0hXvkT++tFlHWNwiwvI/T19YLhwRO1p87K5TVTjYWChp8CU1TCjceI2X8SOJoA8dXdWCaOcFT3PhUV8Z9oKy2UqvM3BTLSkV7TaDGClZMNTFjjo6qqdZG5i8vTWLZqPvxshJDnxuCz5atwLK2y6TcSQh4a+g8ghhaYxA0RyIrwQ2mTqZvFwNweDuLqj8IqUSP1JmtdODo7qWdnVaIwMxtFrF51DH4da0IkLCCk4ZeNkfgxPgulCiNYuw9HYHfVW+WVlfXvS8nJQharrD1Y7Og9fAIGZ/+hzI9TlPYnUtQ3dyReiYU0ZCTEwoGY8XoISr67zFoJjhg4ZQZ8lXFHiitXE+vm3mzJcXG4N8UV1uIgvLrwFrYfiEd2hSnc/J/H3Kn9WGi5h5+Xh+Fzns+FEbqMwNur58OXm6lW8id2rf8S1xT2cHLWSFRWgIy8Ev737hBCOjyBp7ePHusAAfraO+Nzqy74PSsV8wt003/lOmUjNr9Q91a/upLx7ey52J3KNh2exsr14ehv0UBSeTYOvjsXm2JL6hwwx9Alm/HWE9b13nLp0xCsOF4dEW0xfPmnWPy4DeqPRCiQez4Ci1advn+Do8bNis17xpYVhi5ai2VBjlqehlmF9F8+xtJ157XeQNkc1mNWs+/Ku/FEl9Zh4orjOnn8DCGkY9JvC0RgjIlcS0Fegv2F7TT4wck6ipWLCzBx6ngM8+kJiZUpDAVVrFGUh9Rbv+PUvij8cKVu8OAUIXrj21gnfQUTh/aGq50pDLSeIBenVi9A3tjpmPSUL3q72MAEZchN/QuXj+9B1IE/WBuhNfIRvS4cS+KnYvLTfujT1Q7G8kJks/xjDu/Bvl9u0nOqCCFtTs8tEKJ/BjCzc4DYsIlkMikyc4pBd3cQQpqr0y0oReqyw6i3/4uwnk0ku/0VXlm4R+uMLkII0abTLShFCCFEP6gLixBCCC/UAiGEEMILBRBCCCG8UAAhhBDCCwUQQgghvFAAIYQQwgsFEEIIIbxQACGEEMJLp7sTXeTxDObPGgk3pODQlg04kkTrVxBCSFvodC0Qz1FhCPLuiZ7eQQgb1ae9i0MIIZ2WHlsgQvQSW+JFS1P0NTSAKRTIlpXhjLQAXxfIUKijs9yKPobb/mNZCyQZx6Nv1zvuOHEttr3cq95++ZmPMG7NeR2VQkdMnsL7e/6FAWzzxvaXsXh/655UJTDridFzX8dLT3SFcskU+Rl8OO5jROuirISQh46eAogQgx0kiLAUQVAlw4XiMtyDAXqZmmKagwn8jbIxM6tUJ0GkOHY7Fk7froOcOhMD2PZ/DgvDp6G/nfYH0BNCSEvpJ4AYWmABCx6K8gLMS83HtepnhgsNMddVgumWVpiYX4qv9bA6UfaRj/BqjEj9ygXj31+B0ZK2Py8vCoVOVvwTDpiDyBUjYc4tMJhwGAfv9kdIgKMOciaEPMz0EkAEhiK4s983CovvBw+OXIYfCisw3cgQHtx6FXwDiHgkVke9Bq+6+29sQ9ji/bVW5pMX5yC9Zjlyo5olaZsktIbX6GkICR6EXq62MEUJclNv4NLRPYg6eA0FdRfSENmjX/B4PPuUL3o42cPCoAQ5Gcm4dnIvdh6IRXadsX2h7QBMnRWGEf3dYVGZi1sxe7F1eyl0suyWuRjmigJc278ea7+9APNpWxCii3wJIQ81vQQQRbkMCTCDs7GI/VuBmvobQngasyIoZLhdro+S8GWDwCXrsCTQTmPWgQUcuvti9OwB8OsTgUVrziCv+pDQCaPfXYc5Pppr5hrBubs1+/FBgN8XWLT8B6TWtMQ8MPW99xDarbp7SQLP4New0vAEbnIRpLW9Tnmx+Hr559h37Z5ywSjzVmZHCCEc/XRhVRRhbZ4Z1tnY4D92AqzJK0GyQISnbW2x2FyAv/LysK81s22LTiNiZhxUi+4ZITA8EjM8dVN0joFPKOYog4cC2Re/wpbdl5HBKvmBU2bjxcH2sBs2B9OOnkdknLq94DUB05XBoxB/7N2MHWcSIIUlegS9iLnje8PU63lMGfQzPrmg+tBGQ6cgRBk8FMiM3obNe2KRK/JAUNhMjK2/qHqLya8dwp7WZ0MIIbXoaRBdjiu5mfinzBorHe3wPys5ihRCmAsqcCAzHZ9KK1DWquxLkHu3eg1zE+TruDXTzac/xMrz/IZvIvYippR7kYSkCFN47V6MQUIxfPp1A+LUs77+/AqzQ//HNipRIi1h/6qkJP2Ix1kAGcrK6ObuAFxIU+537t5dFfzkl/Ht2u9xSZ1/wuddMfizqXDW7cchhBCd0Ns0XpHIBFOsTeGmqMClohL8yVoKwRZGeMJKjN9K83C04sFd18rc1FS1Ic1AZqnGgdJMZErZbyvAzMzs/v4KFg7dn0TI1DEY3MMJDrYWMKxzx02XLqKabUsLsTr/TGRp5p+RoVxilgIIIeRBpJ8AYmCCt1ztEFglxb+S7uGyuqfnv7nGeM3ZAf92FaA0JQdndTJi3AYEzehH0khj3Hcm1q4cC0lzxy4azF83s7AIIaQt6CWAdLOyQnCXSuxKz68JHpyqyjJ8ll2IJ13FmGlVgLO5D+hjRxTNqMZr0pjjiZDRquBREo8967/EKRY0ZcrDvpi9dTYGNjt/AXQwBEIIIW1CLwHETcR111RAKq9fUcqr5Chiv13VafSrkgUx9WYXA+UMq7qzcTlFJdz4ipj9J4GjCRBf3c1k4ghHde9TUVH13DI7ODiq+qvkcQfw7fn4+3mKK9UD/bUVFErV+TvCQTN/CTtfaz4eIYS0Ib0EkMTyCigsDDHO2hQ/Z5Ygp/qAoAv+YWMBD7Z5U8Y/eBiY28NBXP1RjGBlpN4UieHo7KSutCtRmJld576PDNy9y3a4s+DhFYzxfVMQk1Ou7jaqRFFWNgpZgEm8EgtpyEiIhQMx4/UQlHx3GZmsah84ZQZ8lbFCiitXE9V5ZiIjg+XgIoBwwAS8GnQPx25LYWDbA4GTp6CXlmm5aQkJkMEVhkJfvLBoAoqrZ2G9xFoyvL8VDRYu6NPVquals331F2SJrn08UaDcLkLaX8n172chhJAGCDy9fdq+m11ojAVdHTGF1eTlFeW4WMZaI6wWdTc2hpdIAFm5FAvT7uEKzzEQ1ykbsfmFbk2kSsa3s+did2rtvcZes7Bx1ThI6vUVZWD3glfwbQK3bYvhyz/F4sdttHQpKZB7PgKLVp2uuWHRzHchNr0XzN5VW3H0EcR5joA/a2wkR83DvKgk1QGhB0LXb9C4D0Sd/tezuDkkEP2FrXwW1tDX8dNbTzbx5Mzf8Onkf+N4aaOJCCGkhn6exisvw4Y7aXgnrxjXFAboZ26GEeZGcFSU43BeDl5M5R88Wqvs2jYse/cbnL1xF/mlDRUiF6dWL8BbXxzCb4nZKJZVQS4rRnbCbzi0dRkWfny61t3uxZc3YdmHuxB9Mx0FpRUoy0/D1SMb8da6k5Bqy16ehF3vvYeoX28jt7QSsuIs/HXqC/z709PK7j1CCHkQ6acFQnTIAGZ2DhBrG0zRJJMiM6dY65gOIYToQqdbUKrzs8Oot/+LsJ5NJLv9FV5ZuAetewA8IYQ0rNMtKEUIIUQ/qAuLEEIIL9QCIYQQwgsFEEIIIbxQACGEEMILBRBCCCG8UAAhhBDCCwUQQgghvFAAIYQQwkunuxNd5PEM5s8aCTek4NCWDTiS9ICuMUIIIR1cp2uBeI4KQ5B3T/T0DkLYqD7tXRxCCOm09NgCEeIxS0u8IDZFX0MDmCnkyKoox+mCAnwjlensqbO3oo/htv9Y1gJJxvHo2/WOO05ci20v96q3X37mI4xbc15HpdARk6fw/p5/YQBa+Th3Thd7DHp2GsYNH4AeTtYwFZQgJzkeF458h11Hb6CQnkdACGkhPQUQAwx3lOB9btGnqgpcKi5GHjt1L1NTTHc0RZBpNl7NKME9HZypOHY7Fk7froOcOpEu7pjwQQRe8TLT2CmG5NEhePbRwfDr/QEWrb+g/VHzhBDSAL0EEEMzKyxlwaOiLB9z7hbgZvWyGwaGeMlZgn9a2GBOYSk+Km77y+DsIx/h1RiR+pULxr+/AqN1suxfG1AooItvxPaZOXhJGTzKkHD4v9h+5E8UmXRHUNhsjOtlBknwHEw+fBHbblAzhBDSfHoJIP3NTWGBKnyXoxE8OFUyfJVTiPGuYgwzN2YBhOdyeOKRWB31Grzq7r+xDWGL99da7ElenIP06uXLYVRnidtGCK3hNXoaQoIHoZerLUxRgtzUG7h0dA+iDl6rvxSsyB79gsfj2ad80cPJHhYGJcjJSMa1k3ux80AssuuM7QttB2DqrDCM6O8Oi8pc3IrZi63bS9H6dbaMMGCQt2qwK+0nrI08hCRlnEjC7f/YwuuLF9Ed9vDyYlH0Rnqrz0YIeXjoIYAIYG3AVV8yZFfWP6qolCOP/X7UwEBZGC1JHgA2CFyyDksC7TRmHVjAobsvRs8eAL8+EVi05ozycygJnTD63XWY42OhkYcRnLtbsx8fBPh9gUXLf0BqddARemDqe+9pLGkrgWfwa1hpeEIVcOusod4yClzbvQIrfmab+YlI0Wxk5OQog2t3LpWCWh+EkJbRQwBRILOSqwUN4WtigKiK2tfUdiZGcGe/cyoq+QePotOImBkH1SJ9RggMj8QMz9aUuTYDn1DMUQYPBbIvfoUtuy8jg1XyA6fMxouD7WE3bA6mHT2PyDj1Z/OagOnK4FGIP/Zuxo4zCZDCEj2CXsTc8b1h6vU8pgz6GZ9cUDVDjIZOQYgyeLDvKnobNu+JRa7IA0FhMzG2/iLsLSRDevxFaGtbmA8dCtXXlIP4P7NaeyJCyENGL11YVwuLkWkphp+dA17HPUQVl7Mr3y7oZWaBhXYmrMqvws9sH2/yEuTeLVG/MEF+K7LSpptPf4iV5/kN30TsRYyypy0JSRGm8Nq9GIOEYvj06wbEqWd9/fkVZof+D1x7qkRaUhMYU5J+xOMsgAxlZXRzdwAupCn3O3fvrgp+8sv4du33uKTOP+Hzrhj82VQ46/bjKAkdnsTCmf4wZdulV3fjpz9p8VtCSMvoJYBUlebj3zmGWGNnjAmOjpig3p8jq4QZu/CuLCvE7pIHtwvF3NRUtSHNQKbmME1pJjK5qUtWgJmZxgynijLA/UmETB2DwT2c4GBrAcM6d9x06SKq2ba0EKvzz0SWZv4ZGcolaXUdQIT2/lj04b8whJVbkReNjesOgdofhJCW0tM0XgWu3ctEaIkpgsyM4CxUIKtMBitrO4Sx6/M9OQVI1U9B+BE0ox9JI41x35lYu3IsJM0du2gwf93MwtIkdByGJateR6ADK5z0Cra88zFOZz+4wZsQ8uDS66NM8stLsL9c1dVkI3bALmMB7hXewxc8J1/pTXMGmGvSmOOJkNGq4FESjz3rv8SppHuQKQ/7YvbW2RjY7PwFaPUQiAYD5yC8yVoej9sLocj/DZ8vX4mDKfSoF0IIP+3zLCyhCebYmsBMXoYNOSUobvodbaQSVdUDFF0MlDOstI0EFJVwQU/M/pPA0QSIrw54Jo5wVPc+FRVVfwo7ODiq+qvkcQfw7fn4+3mKK9UD/bUVFErV+TvCQTN/CTtfaz6ehi4uT2PZqvnwsxFCnhuDz5avwrG0B3POGyGkY2iHACJAHxsbjGRn/jM3Dz/roA4zMLeHg7j6oxjByki9KRLD0dlJXWlXojAzu859Hxm4e5ftcGfBwysY4/umICanXN1tVImirGwUsvIlXomFNGQkxMKBmPF6CEq+u4xMVrUPnDIDvspYIcWVq4nqPDORkcFycBFAOGACXg26h2O3pTCw7YHAyVPQS8u03LSEBMjgCkOhL15YNAHF1bOwXmItmdZ/PRC6jMDbq+fD15q1Z0r+xC7WKrqmsIeT5uBKWQEy8kp03mVGCOm8BJ7ePnqtMwSsUt/qbo3HKqSYlXIP13VwdtcpG7H5hW5NpErGt7PnYnedwRZjr1nYuGocJPX6ijKwe8Er+DaB27bF8OWfYvHjNlq6lBTIPR+BRatO19ywaOa7EJveC2bvqq04+gjiPEfAnzU2kqPmYV5UkuqA0AOh6zdo3AeiTv/rWdwcEoj+wtY9C8t6zGr22b0bT3RpHSauOM4CGSGENI+en8ZrgFH2VugjqMKhnHydBI/WKru2Dcve/QZnb9xFfmlD933n4tTqBXjri0P4LTEbxbIqyGXFyE74DYe2LsPCj0/Xutu9+PImLPtwF6JvpqOgtAJl+Wm4emQj3lp3UvvzpuRJ2PXee4j69TZySyshK87CX6e+wL8/Pa2zh0wSQoiu6b0FQlrLAGZ2DhBrG0zRJJMiM6dY65gOIYToQqdbUKrzs8Oot/+LsJ5NJLv9FV5ZuAeteAA8IYQ0qtMtKEUIIUQ/qAuLEEIIL9QCIYQQwgsFEEIIIbxQACGEEMILBRBCCCG8UAAhhBDCCwUQQgghvFAAIYQQwkunuxNd5PEM5s8aCTek4NCWDTiSROtdEEJIW+h0LRDPUWEI8u6Jnt5BCBvVp72LQwghnVbrWiACEYLsbPGmlRHM2cuc/Ew8m13WQGIhelta4iWxKfoaGcAUcmSXy3CmIB/bpDKdLSp1K/oYbvuPZS2QZByPvq2jXBtg8hTe3/MvDEAzH7fe0vSEEPIA4x1AjAzN8C+JDcYaCZFSXoEuRqJGUgvR316CT61EMKiqwKWiYuSwU/cxM8EUR2MMMszCqzllaCj0tERx7HYsnL5dBzkRQghpDL8A4ZagxQAAFH9JREFUIrLAejcbeMtl+DEjB+srLLC3ayMBRGSO+VzwqCjCkjt5iK5SPX5LaGCK5V3tMdLKGhMK0rGzow1XKBQtW8GvpekJIeQBxi+AGHSBqEyKpZn5OFvBqkTjxpMbmRijF/t9raCgJnhw5FUl2FZQjpF2RujL8uAdQMQjsTrqNXjV3X9jG8IW76+12FMNkT36BY/Hs0/5ooeTPSwMSpCTkYxrJ/di54FYZNcpi9B2AKbOCsOI/u6wqMzFrZi92Lq9FA0tQdXS9IQQ0tHwCyDl+ViQqmj2uIWJQLUQbE5F/QXQsypUVaqJkBvP19PyR0InjH53Heb4WGjsNIJzd2v244MAvy+waPkPSK0ujtADU997T2PJWQk8g1/DSsMTuKlljfMWpyeEkA6IXwBRND94aD2p0ABWLFjkyO+3RuqvNd4CRacRMTMOqkX6jBAYHokZno2k95qA6crgUYg/9m7GjjMJkMISPYJexNzxvWHq9TymDPoZn1xQNUOMhk5BiDIYKJAZvQ2b98QiV+SBoLCZGKul4C1NTwghHZH+7wPpYo4Id1sMRik+Ss7CYV3kKS9B7t0S9QsT5Jc3kf7PrzA79H9soxIl0hJUt4tSkn7E4yyADGV5uLk7ABfSlPudu3dXBSf5ZXy79ntcKuVeJCHh864Y/NlUONfJvqXpCSGkI9J/AJHLkVklBzcacK+9FuyuKAPcn0TI1DEY3MMJDrYWMKxzR0yXLvcnBVhaiFUb0kxklWokyshQLhlbNyC0ND0hhHRE7RBASrA6if2oX7bHcIBx35lYu3IsJM09uaChfqcGZlW1ND0hhHRAD8yjTPRXsZrjiZDRquBREo8967/EqaR7kCkL4IvZW2djYL3CNVQ6gfaxm5amJ4SQDkgvAaRUXaHaibjT1Z6J5SBSDTYXyfUVQuzg4Kjqr5LHHcC35+Pvz/0SV6oH4msrKJRyB9l/jnAwAeKru6UkEjjqID0hhHREegkg5aVluAETeFpaYqi09o2EL1sasfhRjqtl/AOIgbk9HMTVH8UIVkbqTZEYjs5O6qBQicLMbBRVZSIjg53LRQDhgAl4Negejt2WwsC2BwInT0EvLdNs0xISIIMrDIW+eGHRBBRXz6p6ibVktJSnpekJIaQjEnh6+7S85u5iitdsTWFV89oQQaYiQFaKE2Xq6/nKYmzMLUW+8kWdR5mUlCOH1dLco0w8hAr8fS8TM3PKeT/KxHXKRmx+oVsTqZLx7ey52J0KmPkuxKb3gmFbJ0Vx9BHEeY6AP2s8JEfNw7yoJNUBoQdC12/QuK9Dnf7Xs7g5JBD9hXWebdXS9IQQ0gHxexovCxhPis0wsvqHBQ/uot/I0OT+PjMRa3NUkyM2OwOzM6X4tVKAx8zMEGxmBEMWcHZmZmBOK4IHH8WXN2HZh7sQfTMdBaUVKMtPw9UjG/HWupOQanuDPAm73nsPUb/eRm5pJWTFWfjr1Bf496enUaSL9IQQ0gHxa4EQQgh56HW69UAIIYToBwUQQgghvFAAIYQQwgsFEEIIIbxQACGEEMILBRBCCCG8UAAhhBDCCwUQQgghvFAAIYQQwgsFEEIIIbw8MOuB6IrI4xnMnzUSbkjBoS0bcCSpor2LRAghnVKna4F4jgpDkHdP9PQOQtioPu1dHEII6bRa1wIRiBBkZ4s3rYxgzl7m5Gfi2exGnqvb0vQ83Io+htv+Y1kLJBnHo2/rNG+4TkXk5hfgzjZjPhmPD0520taNxufU7jd8OvnfOF7aYAJCyEOAdwAxMjTDvyQ2GGskREp5BboYiXSanq/i2O1YOH17m+RNCCHkPn4BRGSB9W428JbL8GNGDtZXWGBv10YCQkvTk/aVfgDvzjwNzb+QyDkY4W9MQS/Tcvz944+4SK0PQh56/AKIQReIyqRYmpmPsxUKwFjH6VtKPBKro16DV939N7YhbPF+5Gp5i8hxIMY+NwFBPh5wsLGEqbAc+dmZSLp6HHt3HUBclrp7ynkyPtv6Iuqudzhk8Q84sPj+6/yfl+L5z/+4v0NoDa/R0xASPAi9XG1hihLkpt7ApaN7EHXwGgrkGpnVnKMCv7z/PA47zcIr4wahu40IxenXcXbPNnx1MhkyzQIIzPDIU1Mx+ZnH4emmzv/Odfx66DvsPnYLxS38CmupKkLO3ftLXxl6jMHbC59jwaMEf+58D+/uuM7ORgh52PELIOX5WJCqaH4l1dL0bc3UF/P/8x6CrAUaO01gJfGAj+Sf8Bnig7Xh7+JENt8T2CBwyTosCbTTmKVgAYfuvhg9ewD8+kRg0ZozyNPyTvPABVjxpD8LCCqGbgMxbvGjcMBcfHCy+h2W8FvwCd4KdtLI3xKSRx/HxEf9MLT3Siz67BIK+RZfg8mjk/HuihfhZSFF3LZ3sPL72yjXQb6EkI6PXwBRtDAYtDR9SxWdRsTMOBgqXxghMDwSMzwbTi7s9ySeUAaPElzdGYEvz6aiqMoQdn0mITw8CBKxLyYFu+NEVDKQcxLr3ohXNZrsg7B4yTNwZJvXdy3H179X1uRZmZdYs23gE4o5yuChQPbFr7Bl92VkQIKBU2bjxcH2sBs2B9OOnkdkXFWdkhmgfz8x/i/iTZxOKYet9yTM+mcgJEILDJk6Bu4nv0Eyl8p7GuYpg0cRrn+/BVGnEpCvsEC3YdMxK8QbTiPm4bljL2PbX3K0jismLOSCB9tkRbX2eRbP5e/H3pOJoB4sQkjnuA9EXoLcu9WdKibIb+ISWSGTgeugMkAWrpy6iFtpqv3paRux5PpumAm5Xhx180OWg4T4HNW2q3fN2u2FafGIj9c+C6ubT3+IleX6Dd9E7EWMsrZNQlKEKbx2L8YgoRg+/boBcXVniQmReXQzvjydpHyVkPgJjB4bhKWBLHy59MQjJkAyy8ud5W/DJcg4jK3bTuBv9buTE75At4ANmCSxx8CBbiyAJDXxxTXFAALIIWdxSGAghvvAIPYzDMM8P8S/Nl6k9d0Jech1jgDSQor4MziTHYyn7T0w7aNP4B59BYmpaUhNuoX4m3eQKmvdMvHmpuoOKGkGMjUv1UszkSllv60AMzMzre9Nv5uu8aoCaakZqKhwAfenEhlxeQBiC7HqsCQE6w+EaM3HytKyVZ9BJRk75o7FDhbYDC3dMPTFN7E42A1Oz8xH6IkwbI1vbQuHENKRPZQBBKWx2PzWRyh4ZTqe7t8bw8awn+pj5emI2ReJTVGxWscomkUg4J1GrqhdKSfumIcJO3SXPz9yyAqScHrzdxj+j9dZC8oGfbwkQPxdHZ6DENLRPJwBhJHd/RVfr2Q/IjGcurpCInFBz/4jMGHkYxgS+g6M82fj7YNZ/DJXNKMF05w0Tb039Yf/b+/eo6KqEziAf4dhHswwD14zkAja0bIU0TRNzTLOVlbWrkYLm6bnaB1bKXtgaeZpl54nPSa2vnpYbW5mup1yF6uTialLutURxAN1auW14ADDY5gHjxlm2DswgMCQwxVxpe/nwMxc5jc/fvef33fu7/e792Ld81mo8lPE4/C39iwQQZCFhEDunZ13t8DR3D3PgxYrrN6lYEogTCccRoEBQvRr9qsMEM2IazBSJ/SQrbUo+qkSpqLC9t/cb75F88jdWD5BgYlTJ0D+WXbPpbMeDzq7/SBJ/1eBsTd652O0wk80jCHCF/XOYawQI4y+0Se7XfyyAqvN6qtfBVSaYOo6aFFAHxOOEOHgw+3uPUEfKDVuf24PHk4QXhbvwkOP7kHXoJrWgCjfEmy7gwt5iX7thkWASEOjYNB27orQiSp8L4WjC+MVMb7VWa2wVZlhF/pV462rsD45WgiEChzashX7C6vR1KZAWPwczL6y46Oe1lb0OUaoqUa10FmPErJj3Jz5mGY+3V6fl73iB5T5Tu4oPpULa/Id0AZNweJVyWjc+71wlGDElJTFmNqeO1acyi/uXXvASvPyUJ8SizBtEh56/Ge8k1UIs0uFuFmLsCI1UYiWehxYuwTb88XUbkP+qRIgYRQwej6eWFqNXV8Xwa6MxYzUhZjYXsaCwsJy0e0nouFBMj5h0sDHUoJVeCRC5Z0L9m3LkaSSAc4mZDf7vg63OrCltknoakSUH6DYlC3Y8UDvU/16K8Wuh1fgI2+/Z7gNL2x+DJM1/RT1mPHZn1ZgW27vb9mhmPHUDjx7c1ifj3yXmYyMrotDRWDO2kykzwxH35mINtTmbMCTrxzpPsHxnJMVA7vGlh4znnwNzyQZ/VwN0w3ToVexZlOO3xMoA6Iaj6XrX8KCUf6uFuCB+eh6rFp/THz9RDQsSA3G6D8P+FNyNVYbNJiskGOs91cmbT+UCZbKOra9v0FOfNLQ0rHUc6DlB0g74U7MS+zbqffUgPysAyjwjv44ziDn+Bm41GHQ6zQIUcggFTpep70WpQX/widbN+JveQ19j0DgRHnuSVSFxOCKCB00Qgh2duBnT+zFkaLO+YImlOR8jQJ7CPTheujUSgS7m1BTehpH972ODe9+i7pzK9eMx513T4J3D8qP78HRkvOtbmpG+YlsnKwLhk6vg1alhMTZgMriXBz8IBOZH+bBciELyVxm5B7OQXmbWqhfj1ClvH3+o7roJL7ak4mNu05eWP1ENCyIOwKhy4gU6kgDtPLzFHNaUVXjABfmElGghsUcCP2SSNy57m0sGXOeYv95D8se3+d3RRcRkT/D7oZSREQ0NDiERUREovAIhIiIRGGAEBGRKAwQIiIShQFCRESiMECIiEgUBggREYnCACEiIlEYIEREJAoDhIiIRLmwa2FJZEiKjMBqvQKhwmaNpQq/NTf3U1aKRJ0eS3RKTJBJIW/zwORswVf1Fuyyu3reuOn/VWwqtu54APEI9LLrRETDl+gAUcjVeCI6HHcrglDW4kKwwt+9IzoF4UZDNF7RBsPd6sS/7c2wS4KRqFZhaYwSU8yVeMTi4pVgiYguI+ICRKbB5rhwJHic2F9Zg80uDf4+sv8AkSh1SBfCo7XZggfLG3DGd/UtuTwUr46MwLRIPeZYzchmghARXTbEBYg0GLJmK9ZUWXDMJaSB8peLx6tCYBCesy3WrvDwcjrt+MgWhmk6BSbKhff7Gf06r647+rlw6PlF+CJmOZbdcz2uDJfBYSrAsX078d7h0p7DZBI1xv4mFffNnYnxcRFQoRG1/y3AN5/vxUcHf4ajT9093ZD+KbLSu7ctB9Zg0fbTHft7/zZsvd870JWDV+a9LDx2moVnstYKj0Dp7jSk7S4R1X7jgtewc+nVgOcoXlq4HzEPL8c9U0dDJ7Gg5PvP8e6be5HPOz4R0UUmLkBaLFhZ3tbdyZ5HhaUSv7NK0Oju26m52u/714YWUQ3pK3T2SmTcMksIhA7yuCm4J/0qIcBW4MXDdb6/6jB95UY8e2vMOasIdIi+aiYWXDUdM8a9gCf/8h1sg9SmgQis/Z1UmPnHDNxyU6hvOwpjb1qMDGMrVqz6GCZmCBFdROICpC3w8PByeTww+xuekihxq1oKuG34ZlASRIrJiVr8c8NqHClrQUTCvVj+4GxEB2lwQ+o8xB9+H6XeUgl/QFp7eNhR8Mkb2P11ESxtGoy+aSGWJycg5vY0/P7gUuz8UWh0zWFserqw4yArKgnpT82FUXhZsGct/nqytes/t9YVD1n7u0gSkajPwobV2ShrjcGsJWlInaiD7OoULEj8GFvzBqFJRET9uIR3JAzCDVERmBfsQU5lA04NyrflIFR9uQPvHilp3yoq3gjFNddjzWyh+x8xBmNDgNImIH7SZIR7C1R+gTd3ZuOM79OlRW9h9I2v497oKEyZEicEiFCPswZFhTUdBWIT0DnKZqsoRGHhYK/CCqz9XSTV+PKtt3GkPbuKUJxpxNR3lmEM1IiPiwDyage5fURE3S5RgEhwbYQBL+qCYbKa8bLNPWg1m86aztlyoaK8Ei7XCHh3VaYQnoQOWKvRdrwdnYzNWcl+69HrdIPWpoEIpP3dqlBVec5mdVX7LWm9d69Vh2qERwYIEV08lyBAJLg6zIBN4Qo0OWrxRFUjLINYu6et51hZ8QdpmP9B7yZIzl9RIGUugoDa36UNnOYgoktlyANkjN6AzEglWhvrsNJkR/lQN8Crzdftln+Kdc9ntX9r783juJBv793densOtXVvSPyUISK6HA1hgEgwWmfA5igl0FiPlWdtKL5EfajVZhUetcKPCqg0wdT1pV8BfUw4QoRe3u32M6zm8XR1+0GS/q8CY7PZfa+uQEyM8HS2c3OE8BdfGav1AveCiOjSGqIAkSBOG4nXDUoEN1uEI4+e54MMtdK8PNSnxCJMm4SHHv8Z72QVwuxSIW7WIqxITRSipR4H1i7B9vxeH6ypRrUQNqOE7Bg3Zz6mmU/D7ssZe8UPKGvoSKK6U6eEI6sJiMVozH90MUzvH0OFJBY3L5mPUd4CbWXIy68fwj0mIhp84gIkWIVHIlTQd23LofY+q7RYZ/Sdk9DqwJbapo75DZkGzxlVCIcb+S4p7ooMx129qqxzNOA9x+BNpv8S9+kPsS37ejyTZER8Uhoyknq8C9Oh7dib76ctzu9x8Fg9pt0cBu11D+C567rf+i4zGRlf+Wa4y/bjjQNzkHHXCGgTUrBmQ0qP+suzduAfZRdhx4iIhpDIAJHjFq0a0b3/Lg/BHXLf6xYndnYGiETiO1ldiokaDSb6qbLMbR+yAIHQquObHsNTham477bpuHZkJJQeG8zlP+LEF/vw8aGf4H+AyY7jW9Zhk3UZFswYh9hIlbBH/jiQuyMdT5csRMrc6bhmpPdM9yaYywpw4rM9+PDLn9B4MXePiGgISMYnTOJsLhERDRjvB0JERKIwQIiISBQGCBERicIAISIiURggREQkCgOEiIhEYYAQEZEoDBAiIhKFAUJERKIwQIiISBQGCBERicIAISIiURggREQkCgOEiIhEYYAQEZEoDBAiIhKFAUJERKIwQIiISBQGCBERicIAISIiURggREQkCgOEiIhEYYAQEZEo/wNgApZ6VpNjZgAAAABJRU5ErkJggg==;" vertex="1" parent="1">
          <mxGeometry x="1570" y="120" width="400" height="319" as="geometry" />
        </mxCell>
      </root>
    </mxGraphModel>
  </diagram>
</mxfile>
